<mxfile host="app.diagrams.net" modified="2024-07-22T10:29:24.235Z" agent="Mozilla/5.0 (Windows NT 10.0; Win64; x64) AppleWebKit/537.36 (KHTML, like Gecko) Chrome/126.0.0.0 Safari/537.36 Edg/126.0.0.0" etag="t5mvvZrHCh5e5MaW-Xr_" version="24.7.1" type="github">
  <diagram name="Page-1" id="mIlsuPGWo_PQo23G4Fa0">
    <mxGraphModel dx="1514" dy="823" grid="1" gridSize="10" guides="1" tooltips="1" connect="1" arrows="1" fold="1" page="1" pageScale="1" pageWidth="850" pageHeight="1100" math="0" shadow="0">
      <root>
        <mxCell id="0" />
        <mxCell id="1" parent="0" />
        <mxCell id="2I6tu4B--KC1xBCraNEP-8" value="" style="rounded=1;whiteSpace=wrap;html=1;fontSize=14;" vertex="1" parent="1">
          <mxGeometry x="40" y="420" width="170" height="110" as="geometry" />
        </mxCell>
        <mxCell id="2I6tu4B--KC1xBCraNEP-2" value="CLI&lt;div style=&quot;font-size: 14px;&quot;&gt;&lt;br style=&quot;font-size: 14px;&quot;&gt;&lt;/div&gt;" style="sketch=0;pointerEvents=1;shadow=0;dashed=0;html=1;labelPosition=center;verticalLabelPosition=bottom;verticalAlign=top;align=center;outlineConnect=0;shape=mxgraph.veeam2.command_line;fillColor=#00BEF2;strokeColor=#6c8ebf;opacity=80;fontSize=14;" vertex="1" parent="1">
          <mxGeometry x="60" y="460" width="50" height="40" as="geometry" />
        </mxCell>
        <mxCell id="2I6tu4B--KC1xBCraNEP-4" value="&lt;div style=&quot;font-size: 14px;&quot;&gt;&lt;br style=&quot;font-size: 14px;&quot;&gt;&lt;/div&gt;" style="verticalLabelPosition=bottom;aspect=fixed;html=1;shape=mxgraph.salesforce.web2;strokeColor=#00BEF2;fillColor=#00BEF2;fontSize=14;" vertex="1" parent="1">
          <mxGeometry x="129.5" y="440" width="60" height="60" as="geometry" />
        </mxCell>
        <mxCell id="2I6tu4B--KC1xBCraNEP-6" value="" style="verticalLabelPosition=bottom;sketch=0;html=1;fillColor=#282828;strokeColor=none;verticalAlign=top;pointerEvents=1;align=center;shape=mxgraph.cisco_safe.people_places_things_icons.icon8;fontSize=14;" vertex="1" parent="1">
          <mxGeometry x="90" y="60" width="19.5" height="50" as="geometry" />
        </mxCell>
        <mxCell id="2I6tu4B--KC1xBCraNEP-7" value="" style="endArrow=classic;html=1;rounded=0;dashed=1;dashPattern=8 8;exitX=0.52;exitY=1.095;exitDx=0;exitDy=0;exitPerimeter=0;entryX=0.013;entryY=0.611;entryDx=0;entryDy=0;entryPerimeter=0;fontSize=14;" edge="1" parent="1" source="2I6tu4B--KC1xBCraNEP-8" target="2I6tu4B--KC1xBCraNEP-1">
          <mxGeometry width="50" height="50" relative="1" as="geometry">
            <mxPoint x="240" y="490" as="sourcePoint" />
            <mxPoint x="320" y="610" as="targetPoint" />
            <Array as="points">
              <mxPoint x="128" y="653" />
            </Array>
          </mxGeometry>
        </mxCell>
        <mxCell id="2I6tu4B--KC1xBCraNEP-9" value="Web Portal" style="text;html=1;align=center;verticalAlign=middle;whiteSpace=wrap;rounded=0;fontSize=14;" vertex="1" parent="1">
          <mxGeometry x="110" y="500" width="100.5" height="30" as="geometry" />
        </mxCell>
        <mxCell id="2I6tu4B--KC1xBCraNEP-11" value="EV2 Compiler&lt;div style=&quot;font-size: 14px;&quot;&gt;&lt;br style=&quot;font-size: 14px;&quot;&gt;&lt;/div&gt;" style="sketch=0;outlineConnect=0;fontColor=#232F3E;gradientColor=none;fillColor=#00BEF2;strokeColor=#3333FF;dashed=0;verticalLabelPosition=bottom;verticalAlign=top;align=center;html=1;fontSize=14;fontStyle=0;aspect=fixed;shape=mxgraph.aws4.mainframe_modernization_compiler;" vertex="1" parent="1">
          <mxGeometry x="425" y="350" width="50" height="50" as="geometry" />
        </mxCell>
        <mxCell id="2I6tu4B--KC1xBCraNEP-17" value="" style="group;fontSize=14;" vertex="1" connectable="0" parent="1">
          <mxGeometry x="366.11" y="500" width="187.76999999999998" height="42" as="geometry" />
        </mxCell>
        <mxCell id="2I6tu4B--KC1xBCraNEP-12" value="" style="sketch=0;outlineConnect=0;fontColor=#232F3E;gradientColor=none;fillColor=#00BEF2;strokeColor=none;dashed=0;verticalLabelPosition=bottom;verticalAlign=top;align=center;html=1;fontSize=14;fontStyle=0;aspect=fixed;pointerEvents=1;shape=mxgraph.aws4.json_script;" vertex="1" parent="2I6tu4B--KC1xBCraNEP-17">
          <mxGeometry width="27.77" height="38" as="geometry" />
        </mxCell>
        <mxCell id="2I6tu4B--KC1xBCraNEP-16" value="ARM Template(Spec)" style="text;html=1;align=center;verticalAlign=middle;resizable=0;points=[];autosize=1;strokeColor=none;fillColor=none;fontSize=14;" vertex="1" parent="2I6tu4B--KC1xBCraNEP-17">
          <mxGeometry x="17.769999999999982" y="8" width="160" height="30" as="geometry" />
        </mxCell>
        <mxCell id="2I6tu4B--KC1xBCraNEP-19" value="" style="endArrow=classic;html=1;rounded=0;fontSize=14;" edge="1" parent="1">
          <mxGeometry width="50" height="50" relative="1" as="geometry">
            <mxPoint x="449" y="440" as="sourcePoint" />
            <mxPoint x="450" y="500" as="targetPoint" />
            <Array as="points">
              <mxPoint x="450" y="440" />
            </Array>
          </mxGeometry>
        </mxCell>
        <mxCell id="2I6tu4B--KC1xBCraNEP-20" value="Gen" style="text;html=1;align=center;verticalAlign=middle;resizable=0;points=[];autosize=1;strokeColor=none;fillColor=none;fontSize=14;" vertex="1" parent="1">
          <mxGeometry x="460" y="460" width="50" height="30" as="geometry" />
        </mxCell>
        <mxCell id="2I6tu4B--KC1xBCraNEP-21" value="" style="endArrow=classic;html=1;rounded=0;entryX=1.053;entryY=0.187;entryDx=0;entryDy=0;entryPerimeter=0;fontSize=14;" edge="1" parent="1" target="2I6tu4B--KC1xBCraNEP-10">
          <mxGeometry width="50" height="50" relative="1" as="geometry">
            <mxPoint x="450" y="540" as="sourcePoint" />
            <mxPoint x="425.82" y="630" as="targetPoint" />
            <Array as="points">
              <mxPoint x="450" y="656" />
            </Array>
          </mxGeometry>
        </mxCell>
        <mxCell id="2I6tu4B--KC1xBCraNEP-29" style="edgeStyle=orthogonalEdgeStyle;rounded=0;orthogonalLoop=1;jettySize=auto;html=1;fontSize=14;" edge="1" parent="1">
          <mxGeometry relative="1" as="geometry">
            <mxPoint x="450" y="270" as="sourcePoint" />
            <mxPoint x="450" y="340" as="targetPoint" />
          </mxGeometry>
        </mxCell>
        <mxCell id="2I6tu4B--KC1xBCraNEP-30" style="edgeStyle=orthogonalEdgeStyle;rounded=0;orthogonalLoop=1;jettySize=auto;html=1;exitX=1;exitY=0.5;exitDx=0;exitDy=0;exitPerimeter=0;entryX=0.5;entryY=1;entryDx=0;entryDy=0;fontSize=14;" edge="1" parent="1" source="2I6tu4B--KC1xBCraNEP-23" target="2I6tu4B--KC1xBCraNEP-26">
          <mxGeometry relative="1" as="geometry" />
        </mxCell>
        <mxCell id="2I6tu4B--KC1xBCraNEP-23" value="C# Con&lt;span style=&quot;background-color: initial; font-size: 14px;&quot;&gt;sole App&lt;/span&gt;" style="verticalLabelPosition=bottom;html=1;verticalAlign=top;align=center;strokeColor=none;fillColor=#00BEF2;shape=mxgraph.azure.code_file;pointerEvents=1;opacity=70;fontSize=14;" vertex="1" parent="1">
          <mxGeometry x="426.25" y="190" width="47.5" height="50" as="geometry" />
        </mxCell>
        <mxCell id="2I6tu4B--KC1xBCraNEP-25" value="Deploy Service CI/CD&lt;div style=&quot;font-size: 14px;&quot;&gt;Former Steps&lt;/div&gt;" style="rounded=1;whiteSpace=wrap;html=1;fontSize=14;" vertex="1" parent="1">
          <mxGeometry x="180" y="90" width="205" height="60" as="geometry" />
        </mxCell>
        <mxCell id="2I6tu4B--KC1xBCraNEP-26" value="Deploy Service CI/CD&lt;div style=&quot;font-size: 14px;&quot;&gt;Later Steps&lt;/div&gt;" style="rounded=1;whiteSpace=wrap;html=1;fontSize=14;" vertex="1" parent="1">
          <mxGeometry x="510" y="90" width="205" height="60" as="geometry" />
        </mxCell>
        <mxCell id="2I6tu4B--KC1xBCraNEP-28" style="edgeStyle=orthogonalEdgeStyle;rounded=0;orthogonalLoop=1;jettySize=auto;html=1;exitX=0.5;exitY=1;exitDx=0;exitDy=0;entryX=0;entryY=0.5;entryDx=0;entryDy=0;entryPerimeter=0;fontSize=14;" edge="1" parent="1" source="2I6tu4B--KC1xBCraNEP-25" target="2I6tu4B--KC1xBCraNEP-23">
          <mxGeometry relative="1" as="geometry" />
        </mxCell>
        <mxCell id="2I6tu4B--KC1xBCraNEP-31" value="" style="sketch=0;outlineConnect=0;fontColor=#232F3E;gradientColor=none;fillColor=#00BEF2;strokeColor=none;dashed=0;verticalLabelPosition=bottom;verticalAlign=top;align=center;html=1;fontSize=14;fontStyle=0;aspect=fixed;pointerEvents=1;shape=mxgraph.aws4.metrics;" vertex="1" parent="1">
          <mxGeometry x="473.75" y="670" width="54.93" height="50" as="geometry" />
        </mxCell>
        <mxCell id="2I6tu4B--KC1xBCraNEP-32" value="metrix?" style="text;html=1;align=center;verticalAlign=middle;resizable=0;points=[];autosize=1;strokeColor=none;fillColor=none;fontSize=14;" vertex="1" parent="1">
          <mxGeometry x="523.6800000000001" y="690" width="70" height="30" as="geometry" />
        </mxCell>
        <mxCell id="2I6tu4B--KC1xBCraNEP-35" value="Experiment" style="rounded=1;whiteSpace=wrap;html=1;fontSize=14;" vertex="1" parent="1">
          <mxGeometry x="260" y="740" width="90" height="30" as="geometry" />
        </mxCell>
        <mxCell id="2I6tu4B--KC1xBCraNEP-36" value="" style="group;fontSize=14;" vertex="1" connectable="0" parent="1">
          <mxGeometry x="260" y="610" width="110" height="70" as="geometry" />
        </mxCell>
        <mxCell id="2I6tu4B--KC1xBCraNEP-1" value="" style="verticalLabelPosition=bottom;html=1;verticalAlign=top;align=center;strokeColor=none;fillColor=#00BEF2;shape=mxgraph.azure.azure_subscription;fontSize=14;" vertex="1" parent="2I6tu4B--KC1xBCraNEP-36">
          <mxGeometry width="90" height="70" as="geometry" />
        </mxCell>
        <mxCell id="2I6tu4B--KC1xBCraNEP-10" value="" style="image;aspect=fixed;html=1;points=[];align=center;fontSize=14;image=img/lib/azure2/other/Azure_Chaos_Studio.svg;" vertex="1" parent="2I6tu4B--KC1xBCraNEP-36">
          <mxGeometry x="80" y="40" width="30" height="30" as="geometry" />
        </mxCell>
        <mxCell id="2I6tu4B--KC1xBCraNEP-37" value="" style="edgeStyle=orthogonalEdgeStyle;rounded=0;orthogonalLoop=1;jettySize=auto;html=1;fontSize=14;" edge="1" parent="1" source="2I6tu4B--KC1xBCraNEP-1" target="2I6tu4B--KC1xBCraNEP-35">
          <mxGeometry relative="1" as="geometry" />
        </mxCell>
        <mxCell id="2I6tu4B--KC1xBCraNEP-38" value="create/trigger" style="text;html=1;align=center;verticalAlign=middle;resizable=0;points=[];autosize=1;strokeColor=none;fillColor=none;fontSize=14;" vertex="1" parent="1">
          <mxGeometry x="300" y="698" width="110" height="30" as="geometry" />
        </mxCell>
        <mxCell id="2I6tu4B--KC1xBCraNEP-39" value="" style="verticalLabelPosition=bottom;sketch=0;html=1;fillColor=#282828;strokeColor=none;verticalAlign=top;pointerEvents=1;align=center;shape=mxgraph.cisco_safe.people_places_things_icons.icon8;fontSize=14;" vertex="1" parent="1">
          <mxGeometry x="115.25" y="360" width="19.5" height="50" as="geometry" />
        </mxCell>
        <mxCell id="2I6tu4B--KC1xBCraNEP-40" value="deprecated" style="text;html=1;align=center;verticalAlign=middle;resizable=0;points=[];autosize=1;strokeColor=none;fillColor=none;fontSize=14;" vertex="1" parent="1">
          <mxGeometry x="129.75" y="620" width="90" height="30" as="geometry" />
        </mxCell>
        <mxCell id="2I6tu4B--KC1xBCraNEP-41" value="" style="endArrow=classic;html=1;rounded=0;entryX=0;entryY=0.5;entryDx=0;entryDy=0;fontSize=14;" edge="1" parent="1" target="2I6tu4B--KC1xBCraNEP-25">
          <mxGeometry width="50" height="50" relative="1" as="geometry">
            <mxPoint x="50" y="120" as="sourcePoint" />
            <mxPoint x="450" y="400" as="targetPoint" />
          </mxGeometry>
        </mxCell>
        <mxCell id="2I6tu4B--KC1xBCraNEP-42" value="" style="endArrow=classic;html=1;rounded=0;fontSize=14;" edge="1" parent="1">
          <mxGeometry width="50" height="50" relative="1" as="geometry">
            <mxPoint x="715" y="119.5" as="sourcePoint" />
            <mxPoint x="810" y="120" as="targetPoint" />
          </mxGeometry>
        </mxCell>
        <mxCell id="2I6tu4B--KC1xBCraNEP-44" value="Similar to K8s deployment yaml" style="text;html=1;align=center;verticalAlign=middle;resizable=0;points=[];autosize=1;strokeColor=none;fillColor=none;fontSize=14;" vertex="1" parent="1">
          <mxGeometry x="475" y="530" width="220" height="30" as="geometry" />
        </mxCell>
      </root>
    </mxGraphModel>
  </diagram>
</mxfile>
